<svg width="90" height="165" viewBox="0 0 90 165" fill="none" xmlns="http://www.w3.org/2000/svg">
<path d="M51 6C51 2.68629 48.3137 0 45 0C41.6863 0 39 2.68629 39 6H51ZM40.7574 163.243C43.1005 165.586 46.8995 165.586 49.2426 163.243L87.4264 125.059C89.7696 122.716 89.7696 118.917 87.4264 116.574C85.0833 114.23 81.2843 114.23 78.9411 116.574L45 150.515L11.0589 116.574C8.71573 114.23 4.91674 114.23 2.57359 116.574C0.230447 118.917 0.230447 122.716 2.57359 125.059L40.7574 163.243ZM39 6V159H51V6H39Z" fill="#FAFAFA"/>
</svg>
