<svg width="47" height="86" viewBox="0 0 47 86" fill="none" xmlns="http://www.w3.org/2000/svg">
<path d="M26.5682 4C26.5682 2.30549 25.1945 0.931818 23.5 0.931818C21.8055 0.931818 20.4318 2.30549 20.4318 4H26.5682ZM21.3305 84.4082C22.5287 85.6064 24.4713 85.6064 25.6695 84.4082L45.1953 64.8824C46.3935 63.6842 46.3935 61.7415 45.1953 60.5433C43.9971 59.3451 42.0545 59.3451 40.8563 60.5433L23.5 77.8996L6.14374 60.5433C4.94554 59.3451 3.00288 59.3451 1.80468 60.5433C0.60648 61.7415 0.60648 63.6842 1.80468 64.8824L21.3305 84.4082ZM20.4318 4V82.2386H26.5682V4H20.4318Z" fill="#FAFAFA"/>
</svg>
